<?xml version="1.0" encoding="UTF-8" standalone="no"?>
<!-- Created with Inkscape (http://www.inkscape.org/) -->

<svg
   xmlns:dc="http://purl.org/dc/elements/1.1/"
   xmlns:cc="http://creativecommons.org/ns#"
   xmlns:rdf="http://www.w3.org/1999/02/22-rdf-syntax-ns#"
   xmlns:svg="http://www.w3.org/2000/svg"
   xmlns="http://www.w3.org/2000/svg"
   xmlns:xlink="http://www.w3.org/1999/xlink"
   xmlns:sodipodi="http://sodipodi.sourceforge.net/DTD/sodipodi-0.dtd"
   xmlns:inkscape="http://www.inkscape.org/namespaces/inkscape"
   width="80"
   height="80"
   id="svg2"
   version="1.1"
   inkscape:version="0.47 r22583"
   sodipodi:docname="sprites.svg"
   inkscape:export-filename="/home/tim/Desktop/node-camp/examples/conquest/web/imgs/sprites.png"
   inkscape:export-xdpi="90"
   inkscape:export-ydpi="90">
  <defs
     id="defs4">
    <pattern
       inkscape:collect="always"
       xlink:href="#pattern4723"
       id="pattern4732"
       patternTransform="translate(10.000007,130)" />
    <pattern
       inkscape:collect="always"
       xlink:href="#pattern4605"
       id="pattern4615" />
    <inkscape:perspective
       sodipodi:type="inkscape:persp3d"
       inkscape:vp_x="0 : 526.18109 : 1"
       inkscape:vp_y="0 : 1000 : 0"
       inkscape:vp_z="744.09448 : 526.18109 : 1"
       inkscape:persp3d-origin="372.04724 : 350.78739 : 1"
       id="perspective10" />
    <inkscape:perspective
       id="perspective2824"
       inkscape:persp3d-origin="0.5 : 0.33333333 : 1"
       inkscape:vp_z="1 : 0.5 : 1"
       inkscape:vp_y="0 : 1000 : 0"
       inkscape:vp_x="0 : 0.5 : 1"
       sodipodi:type="inkscape:persp3d" />
    <inkscape:perspective
       id="perspective2838"
       inkscape:persp3d-origin="0.5 : 0.33333333 : 1"
       inkscape:vp_z="1 : 0.5 : 1"
       inkscape:vp_y="0 : 1000 : 0"
       inkscape:vp_x="0 : 0.5 : 1"
       sodipodi:type="inkscape:persp3d" />
    <inkscape:perspective
       id="perspective2875"
       inkscape:persp3d-origin="0.5 : 0.33333333 : 1"
       inkscape:vp_z="1 : 0.5 : 1"
       inkscape:vp_y="0 : 1000 : 0"
       inkscape:vp_x="0 : 0.5 : 1"
       sodipodi:type="inkscape:persp3d" />
    <inkscape:perspective
       id="perspective2897"
       inkscape:persp3d-origin="0.5 : 0.33333333 : 1"
       inkscape:vp_z="1 : 0.5 : 1"
       inkscape:vp_y="0 : 1000 : 0"
       inkscape:vp_x="0 : 0.5 : 1"
       sodipodi:type="inkscape:persp3d" />
    <filter
       id="filter3863"
       inkscape:label="Drop shadow"
       width="1.5"
       height="1.5"
       x="-0.25"
       y="-0.25"
       color-interpolation-filters="sRGB">
      <feGaussianBlur
         id="feGaussianBlur3865"
         in="SourceAlpha"
         stdDeviation="3.000000"
         result="blur" />
      <feColorMatrix
         id="feColorMatrix3867"
         result="bluralpha"
         type="matrix"
         values="-1 0 0 0 1 0 -1 0 0 1 0 0 -1 0 1 0 0 0 1.000000 0 " />
      <feOffset
         id="feOffset3869"
         in="bluralpha"
         dx="0.000000"
         dy="0.000000"
         result="offsetBlur" />
      <feMerge
         id="feMerge3871">
        <feMergeNode
           id="feMergeNode3873"
           in="offsetBlur" />
        <feMergeNode
           id="feMergeNode3875"
           in="SourceGraphic" />
      </feMerge>
    </filter>
    <filter
       id="filter3915"
       inkscape:label="Drop shadow"
       width="1.5"
       height="1.5"
       x="-0.25"
       y="-0.25"
       color-interpolation-filters="sRGB">
      <feGaussianBlur
         id="feGaussianBlur3917"
         in="SourceAlpha"
         stdDeviation="3.000000"
         result="blur" />
      <feColorMatrix
         id="feColorMatrix3919"
         result="bluralpha"
         type="matrix"
         values="-1 0 0 0 1 0 -1 0 0 1 0 0 -1 0 1 0 0 0 1.000000 0 " />
      <feOffset
         id="feOffset3921"
         in="bluralpha"
         dx="0.000000"
         dy="0.000000"
         result="offsetBlur" />
      <feMerge
         id="feMerge3923">
        <feMergeNode
           id="feMergeNode3925"
           in="offsetBlur" />
        <feMergeNode
           id="feMergeNode3927"
           in="SourceGraphic" />
      </feMerge>
    </filter>
    <filter
       id="filter5674"
       inkscape:label="Chalk and sponge"
       inkscape:menu="Distort"
       inkscape:menu-tooltip="Low turbulence gives sponge look and high turbulence chalk"
       width="1.6"
       height="2"
       y="-0.5"
       x="-0.30000001"
       color-interpolation-filters="sRGB">
      <feTurbulence
         id="feTurbulence5676"
         baseFrequency="0.4"
         type="fractalNoise"
         seed="0"
         numOctaves="5"
         result="result1" />
      <feOffset
         id="feOffset5678"
         dx="-5"
         dy="-5"
         result="result2" />
      <feDisplacementMap
         id="feDisplacementMap5680"
         in2="result1"
         xChannelSelector="R"
         yChannelSelector="G"
         scale="30"
         in="SourceGraphic" />
    </filter>
    <filter
       id="filter5682"
       inkscape:label="Chalk and sponge"
       inkscape:menu="Distort"
       inkscape:menu-tooltip="Low turbulence gives sponge look and high turbulence chalk"
       width="1.6"
       height="2"
       y="-0.5"
       x="-0.30000001"
       color-interpolation-filters="sRGB">
      <feTurbulence
         id="feTurbulence5684"
         baseFrequency="0.4"
         type="fractalNoise"
         seed="0"
         numOctaves="5"
         result="result1" />
      <feOffset
         id="feOffset5686"
         dx="-5"
         dy="-5"
         result="result2" />
      <feDisplacementMap
         id="feDisplacementMap5688"
         in2="result1"
         xChannelSelector="R"
         yChannelSelector="G"
         scale="30"
         in="SourceGraphic" />
    </filter>
    <filter
       id="filter5690"
       inkscape:label="Chalk and sponge"
       inkscape:menu="Distort"
       inkscape:menu-tooltip="Low turbulence gives sponge look and high turbulence chalk"
       width="1.6"
       height="2"
       y="-0.5"
       x="-0.30000001"
       color-interpolation-filters="sRGB">
      <feTurbulence
         id="feTurbulence5692"
         baseFrequency="0.4"
         type="fractalNoise"
         seed="0"
         numOctaves="5"
         result="result1" />
      <feOffset
         id="feOffset5694"
         dx="-5"
         dy="-5"
         result="result2" />
      <feDisplacementMap
         id="feDisplacementMap5696"
         in2="result1"
         xChannelSelector="R"
         yChannelSelector="G"
         scale="30"
         in="SourceGraphic" />
    </filter>
    <filter
       id="filter5698"
       inkscape:label="Chalk and sponge"
       inkscape:menu="Distort"
       inkscape:menu-tooltip="Low turbulence gives sponge look and high turbulence chalk"
       width="1.6"
       height="2"
       y="-0.5"
       x="-0.30000001"
       color-interpolation-filters="sRGB">
      <feTurbulence
         id="feTurbulence5700"
         baseFrequency="0.4"
         type="fractalNoise"
         seed="0"
         numOctaves="5"
         result="result1" />
      <feOffset
         id="feOffset5702"
         dx="-5"
         dy="-5"
         result="result2" />
      <feDisplacementMap
         id="feDisplacementMap5704"
         in2="result1"
         xChannelSelector="R"
         yChannelSelector="G"
         scale="30"
         in="SourceGraphic" />
    </filter>
    <filter
       id="filter5706"
       inkscape:label="Chalk and sponge"
       inkscape:menu="Distort"
       inkscape:menu-tooltip="Low turbulence gives sponge look and high turbulence chalk"
       width="1.6"
       height="2"
       y="-0.5"
       x="-0.30000001"
       color-interpolation-filters="sRGB">
      <feTurbulence
         id="feTurbulence5708"
         baseFrequency="0.34499999999999997"
         type="fractalNoise"
         seed="0"
         numOctaves="1"
         result="result1" />
      <feOffset
         id="feOffset5710"
         dx="-5"
         dy="-5"
         result="result2" />
      <feDisplacementMap
         id="feDisplacementMap5712"
         in2="result1"
         xChannelSelector="R"
         yChannelSelector="G"
         scale="30"
         in="SourceGraphic" />
    </filter>
    <filter
       id="filter5714"
       inkscape:label="Chalk and sponge"
       inkscape:menu="Distort"
       inkscape:menu-tooltip="Low turbulence gives sponge look and high turbulence chalk"
       width="1.6"
       height="2"
       y="-0.5"
       x="-0.30000001"
       color-interpolation-filters="sRGB">
      <feTurbulence
         id="feTurbulence5716"
         baseFrequency="0.4"
         type="fractalNoise"
         seed="0"
         numOctaves="5"
         result="result1" />
      <feOffset
         id="feOffset5718"
         dx="-5"
         dy="-5"
         result="result2" />
      <feDisplacementMap
         id="feDisplacementMap5720"
         in2="result1"
         xChannelSelector="R"
         yChannelSelector="G"
         scale="30"
         in="SourceGraphic" />
    </filter>
    <filter
       id="filter5722"
       inkscape:label="Chalk and sponge"
       inkscape:menu="Distort"
       inkscape:menu-tooltip="Low turbulence gives sponge look and high turbulence chalk"
       width="1.6"
       height="2"
       y="-0.5"
       x="-0.30000001"
       color-interpolation-filters="sRGB">
      <feTurbulence
         id="feTurbulence5724"
         baseFrequency="0.4"
         type="fractalNoise"
         seed="0"
         numOctaves="5"
         result="result1" />
      <feOffset
         id="feOffset5726"
         dx="-5"
         dy="-5"
         result="result2" />
      <feDisplacementMap
         id="feDisplacementMap5728"
         in2="result1"
         xChannelSelector="R"
         yChannelSelector="G"
         scale="30"
         in="SourceGraphic" />
    </filter>
    <filter
       id="filter5730"
       inkscape:label="Chalk and sponge"
       inkscape:menu="Distort"
       inkscape:menu-tooltip="Low turbulence gives sponge look and high turbulence chalk"
       width="1.6"
       height="2"
       y="-0.5"
       x="-0.30000001"
       color-interpolation-filters="sRGB">
      <feTurbulence
         id="feTurbulence5732"
         baseFrequency="0.4"
         type="fractalNoise"
         seed="0"
         numOctaves="5"
         result="result1" />
      <feOffset
         id="feOffset5734"
         dx="-5"
         dy="-5"
         result="result2" />
      <feDisplacementMap
         id="feDisplacementMap5736"
         in2="result1"
         xChannelSelector="R"
         yChannelSelector="G"
         scale="30"
         in="SourceGraphic" />
    </filter>
    <inkscape:perspective
       id="perspective6189"
       inkscape:persp3d-origin="0.5 : 0.33333333 : 1"
       inkscape:vp_z="1 : 0.5 : 1"
       inkscape:vp_y="0 : 1000 : 0"
       inkscape:vp_x="0 : 0.5 : 1"
       sodipodi:type="inkscape:persp3d" />
    <pattern
       patternUnits="userSpaceOnUse"
       width="1008"
       height="720"
       patternTransform="translate(-319,-515.04372)"
       id="pattern6464">
      <image
         style="stroke-width:3;stroke-miterlimit:4;stroke-dasharray:none"
         xlink:href="/home/tim/inkscape_pasted_image_20101125_121524.png"
         width="1008"
         height="720"
         id="image6191"
         x="0"
         y="0"
         sodipodi:absref="/home/tim/inkscape_pasted_image_20101125_121524.png" />
    </pattern>
    <inkscape:perspective
       id="perspective3014"
       inkscape:persp3d-origin="0.5 : 0.33333333 : 1"
       inkscape:vp_z="1 : 0.5 : 1"
       inkscape:vp_y="0 : 1000 : 0"
       inkscape:vp_x="0 : 0.5 : 1"
       sodipodi:type="inkscape:persp3d" />
    <pattern
       patternUnits="userSpaceOnUse"
       width="10"
       height="10"
       patternTransform="translate(0,100)"
       id="pattern4592">
      <path
         sodipodi:nodetypes="ccccccccccccccc"
         id="path3862"
         d="m 0,0 0,2 8,8 2,0 L 10,8 2,0 0,0 z M 8,0 10,2 10,0 8,0 z M 0,8 0,10 2,10 0,8 z"
         style="fill:#000000;fill-opacity:0.50196078;stroke:none" />
    </pattern>
    <pattern
       patternUnits="userSpaceOnUse"
       width="10"
       height="10"
       patternTransform="translate(0,140)"
       id="pattern4605">
      <path
         sodipodi:nodetypes="ccccccccccccccc"
         id="path4603"
         d="m 0,0 0,2 8,8 2,0 L 10,8 2,0 0,0 z M 8,0 10,2 10,0 8,0 z M 0,8 0,10 2,10 0,8 z"
         style="fill:#000000;fill-opacity:0.74509804;stroke:none" />
    </pattern>
    <pattern
       patternUnits="userSpaceOnUse"
       width="10"
       height="10"
       patternTransform="translate(0,140)"
       id="pattern4612">
      <rect
         id="rect4608"
         y="0"
         x="0"
         height="10"
         width="10"
         style="fill:url(#pattern4615);stroke:none" />
    </pattern>
    <pattern
       patternUnits="userSpaceOnUse"
       width="10"
       height="10"
       patternTransform="translate(10,130)"
       id="pattern4723">
      <g
         inkscape:export-ydpi="90"
         inkscape:export-xdpi="90"
         inkscape:export-filename="/home/tim/Desktop/node-camp/examples/conquest/web/imgs/green-city.png"
         id="g4696"
         transform="translate(-10,-130)">
        <path
           id="path4634"
           d="m 10,130 10,0 0,10 -10,0 0,-10 z"
           style="fill:#8ae234;stroke:none" />
        <path
           sodipodi:nodetypes="ccccccccccccccc"
           id="path4636"
           d="m 10,130 0,3 7,7 3,0 0,-3 -7,-7 -3,0 z m 7,0 3,3 0,-3 -3,0 z m -7,7 0,3 3,0 -3,-3 z"
           style="fill:#73d216;fill-opacity:1;stroke:none" />
      </g>
    </pattern>
  </defs>
  <sodipodi:namedview
     id="base"
     pagecolor="#ffffff"
     bordercolor="#666666"
     borderopacity="1.0"
     inkscape:pageopacity="0.0"
     inkscape:pageshadow="2"
     inkscape:zoom="1"
     inkscape:cx="-432.16492"
     inkscape:cy="68.256764"
     inkscape:document-units="px"
     inkscape:current-layer="layer2"
     showgrid="false"
     inkscape:window-width="1600"
     inkscape:window-height="851"
     inkscape:window-x="0"
     inkscape:window-y="24"
     inkscape:window-maximized="1">
    <inkscape:grid
       type="xygrid"
       id="grid2846"
       empspacing="10"
       visible="true"
       enabled="true"
       snapvisiblegridlinesonly="true"
       spacingx="1px"
       spacingy="1px" />
  </sodipodi:namedview>
  <metadata
     id="metadata7">
    <rdf:RDF>
      <cc:Work
         rdf:about="">
        <dc:format>image/svg+xml</dc:format>
        <dc:type
           rdf:resource="http://purl.org/dc/dcmitype/StillImage" />
        <dc:title></dc:title>
      </cc:Work>
    </rdf:RDF>
  </metadata>
  <g
     inkscape:groupmode="layer"
     id="layer2"
     inkscape:label="Layer"
     transform="translate(0,20)">
    <path
       id="path4660"
       d="m 0,140 10,0 0,10 -10,0 0,-10 z"
       style="fill:#fce94f;stroke:none" />
    <rect
       style="fill:#0d1e37;fill-opacity:1;stroke:none"
       id="rect6371"
       width="1003.1069"
       height="1041"
       x="-1045.1069"
       y="-564" />
    <rect
       style="fill:#ef2929;fill-opacity:1;stroke:none"
       id="rect6274"
       width="58"
       height="58"
       x="-539"
       y="-209"
       rx="10"
       ry="10" />
    <rect
       ry="10"
       rx="10"
       y="-179"
       x="-509"
       height="58"
       width="88"
       id="rect6276"
       style="fill:#ef2929;fill-opacity:1;stroke:none" />
    <rect
       style="fill:#ef2929;fill-opacity:1;stroke:none"
       id="rect6278"
       width="58"
       height="58"
       x="-449"
       y="-209"
       rx="10"
       ry="10" />
    <rect
       style="fill:#8ae234;fill-opacity:1;stroke:none"
       id="rect6280"
       width="28"
       height="178"
       x="-539"
       y="-149"
       rx="10"
       ry="10" />
    <rect
       style="fill:#8ae234;fill-opacity:1;stroke:none"
       id="rect6282"
       width="58"
       height="118"
       x="-539"
       y="-119"
       rx="10"
       ry="10" />
    <path
       style="fill:url(#pattern4732);fill-opacity:1;stroke:#73d216;stroke-width:2;stroke-miterlimit:4;stroke-dasharray:none"
       d="m -443.61418,-38.729129 c -4.59977,0.288851 -5.70877,5.768742 -4.91616,9.49169 0.33399,7.951564 -0.63743,16.090376 0.42564,23.9420461 2.42822,5.289048 9.39212,2.71851 13.87592,3.298682 5.75805,-1.444865 7.10306,1.523251 6.12923,6.810181 0.33798,4.3833514 -1.79059,11.5825259 3.85206,13.3862609 5.47679,0.576174 11.06304,0.05678 16.57874,0.2341 0.39228,5.711575 -0.74668,11.676231 0.48949,17.259553 2.5107,5.150852 9.35677,2.569189 13.81207,3.17099 6.39338,-0.395008 13.0373,0.749684 19.30284,-0.489481 5.15092,-2.510679 2.56922,-9.356656 3.17103,-13.811899 -0.39502,-6.393307 0.74969,-13.037149 -0.48949,-19.3026059 -2.5107,-5.150852 -9.35677,-2.569189 -13.81207,-3.170991 -5.75805,1.444865 -7.10306,-1.523251 -6.12923,-6.810181 -0.25271,-10.1547671 0.48931,-20.4336821 -0.34052,-30.5181271 -2.07147,-5.331649 -8.94917,-3.121121 -13.28001,-3.532781 -12.88889,0.02873 -25.7851,-0.05723 -38.66954,0.04256 z"
       id="rect6284" />
    <image
       y="-178"
       x="98"
       id="image3016"
       height="400"
       width="640"
       xlink:href="file:///home/tim/Desktop/conquest8.png" />
    <path
       style="fill:#000000;fill-opacity:1;stroke:none"
       d="m 11,42 -2,0 -3.9999999,4 0,8 L 9,58 l 1,0 0,-3 -1.9999999,-2 0,-1 L 11,52 l 0,6 2,0 0,-12 -2,0 0,2 -2.9999999,0 0,-1 L 11,44 11,42 z"
       id="path3020"
       sodipodi:nodetypes="ccccccccccccccccccc" />
    <path
       style="fill:#000000;fill-opacity:1;stroke:none"
       d="m 77,49 0,1 -4,4 2,0 1,2 -12,0 1,-2 3,0 -7,-7 1,-1 1,0 6,6 0,-7 1,-1 1,1 0,8 5,-5 1,1"
       id="path3794"
       sodipodi:nodetypes="cccccccccccccccccc" />
    <path
       style="fill:#000000;fill-opacity:1;stroke:none"
       d="m 61.90625,22.0625 0,1 3,3 L 66,26 l -0.09375,-0.9375 -3,-3 -1,0 z m 15,0 -3,3 0,1 1,0 3,-3 L 78,22.125 76.90625,22.0625 z m -13,6 0,4 12,0 0,-4 -12,0 z m 1,6 -3,3 0,1 1,0 3,-3 L 66,34.125 64.90625,34.0625 z m 9,0 0,1 3,3 L 78,38 l -0.09375,-0.9375 -3,-3 -1,0 z"
       id="path3796" />
    <path
       style="fill:#3465a4;stroke:none"
       d="m 62,10 0,1 5,5 -3,0 0,2 14,0 0,-2 -2,0 0,-3 2,-2 0,-1 -2,0 0,-6 -4,0 0,6 -4,0 0,-6 -4,0 0,6 -2,0 z"
       id="path3809" />
    <path
       style="fill:#000000;fill-opacity:1;stroke:none"
       d="m 44,44 2,0 3,0 1,0 0,4 6,0 0,8 -4,0 0,-4 -2,0 0,4 -4,0 0,-8 -2,0 0.0392,-3.040699 L 44,44 z"
       id="path3811"
       sodipodi:nodetypes="cccccccccccccccc" />
    <path
       style="fill:#000000;fill-opacity:1;stroke:none"
       d="m 25,44 -1,1 0,2 1,1 2,0 1,-1 0,-2 -1,-1 -2,0 z m 8,2 -1,1 0,2 1,1 2,0 1,-1 0,-2 -1,-1 -2,0 z m -4,6 -1,1 0,2 1,1 2,0 1,-1 0,-2 -1,-1 -2,0 z"
       id="path3813" />
    <path
       style="fill:#000000;fill-opacity:1;stroke:none"
       d="m 24,24 0,4 4,0 0,4 -4,0 0,4 12,0 0,-4 -4,0 0,-4 4,0 0,-4 -12,0"
       id="path3822"
       sodipodi:nodetypes="ccccccccccccc" />
    <path
       style="fill:#000000;fill-opacity:1;stroke:none"
       d="m 46,36 0,-1 1,-1 1,0 0,-4 -1,0 -1,-1 0,-1 -1,0 -1,-1 2,-2 0,-1 1,0 2,-2 4,0 1,1 0,1 1,0 1,1 0,2 -2,2 0,1 -2,0 0,4 1,0 1,1 0,1 -8,0 z"
       id="path3824" />
    <path
       style="fill:#000000;fill-opacity:1;stroke:none"
       d="m 4,36 0,-11 1,-1 10,0 1,1 0,11 -4,0 0,-5 -1,-1 -2,0 -1,1 0,5 -4,0 z"
       id="path3820" />
    <path
       id="path3850"
       d="m 42,10 0,1 5,5 -3,0 0,2 14,0 0,-2 -2,0 0,-3 2,-2 0,-1 -2,0 0,-6 -4,0 0,6 -4,0 0,-6 -4,0 0,6 -2,0 z"
       style="fill:#f57900;stroke:none" />
    <path
       style="fill:#73d216;stroke:none"
       d="m 22,10 0,1 5,5 -3,0 0,2 14,0 0,-2 -2,0 0,-3 2,-2 0,-1 -2,0 0,-6 -4,0 0,6 -4,0 0,-6 -4,0 0,6 -2,0 z"
       id="path3852" />
    <path
       id="path3854"
       d="m 2,10 0,1 5,5 -3,0 0,2 14,0 0,-2 -2,0 0,-3 2,-2 0,-1 -2,0 0,-6 -4,0 0,6 -4,0 0,-6 -4,0 0,6 -2,0 z"
       style="fill:#edd400;stroke:none" />
    <path
       id="path3856"
       d="m 62,-10 0,1 5,5 -3,0 0,2 14,0 0,-2 -2,0 0,-3 2,-2 0,-1 -2,0 0,-6 -4,0 0,6 -4,0 0,-6 -4,0 0,6 -2,0 z"
       style="fill:#cc0000;stroke:none" />
    <path
       style="fill:#c17d11;stroke:none"
       d="m 42,-10 0,1 5,5 -3,0 0,2 14,0 0,-2 -2,0 0,-3 2,-2 0,-1 -2,0 0,-6 -4,0 0,6 -4,0 0,-6 -4,0 0,6 -2,0 z"
       id="path3858" />
    <path
       id="path3860"
       d="m 22,-10 0,1 5,5 -3,0 0,2 14,0 0,-2 -2,0 0,-3 2,-2 0,-1 -2,0 0,-6 -4,0 0,6 -4,0 0,-6 -4,0 0,6 -2,0 z"
       style="fill:#75507b;stroke:none" />
    <rect
       id="rect4599"
       y="140"
       x="0"
       height="20"
       width="20"
       style="fill:none;stroke:none" />
    <rect
       style="stroke:none;fill:none"
       width="10"
       height="10"
       x="0"
       y="140"
       id="rect4617" />
    <rect
       style="fill:none;stroke:none"
       width="10"
       height="10"
       x="0"
       y="140"
       id="rect4619" />
    <g
       id="g4692">
      <path
         inkscape:export-ydpi="90"
         inkscape:export-xdpi="90"
         inkscape:export-filename="/home/tim/Desktop/node-camp/examples/conquest/web/imgs/yellow-city.png"
         id="path4625"
         d="m 0,130 10,0 0,10 -10,0 0,-10 z"
         style="fill:#fce94f;stroke:none" />
      <path
         inkscape:export-ydpi="90"
         inkscape:export-xdpi="90"
         inkscape:export-filename="/home/tim/Desktop/node-camp/examples/conquest/web/imgs/yellow-city.png"
         sodipodi:nodetypes="ccccccccccccccc"
         id="path4623"
         d="m 0,130 0,3 7,7 3,0 0,-3 -7,-7 -3,0 z m 7,0 3,3 0,-3 -3,0 z m -7,7 0,3 3,0 -3,-3 z"
         style="fill:#edd400;fill-opacity:1;stroke:none" />
    </g>
    <rect
       style="stroke:none;fill:url(#pattern4723)"
       width="10"
       height="10"
       x="10"
       y="130"
       id="rect4728" />
    <g
       id="g4700"
       inkscape:export-filename="/home/tim/Desktop/node-camp/examples/conquest/web/imgs/orange-city.png"
       inkscape:export-xdpi="90"
       inkscape:export-ydpi="90">
      <path
         style="fill:#fcaf3e;stroke:none"
         d="m 20,130 10,0 0,10 -10,0 0,-10 z"
         id="path4638" />
      <path
         style="fill:#f57900;fill-opacity:1;stroke:none"
         d="m 20,130 0,3 7,7 3,0 0,-3 -7,-7 -3,0 z m 7,0 3,3 0,-3 -3,0 z m -7,7 0,3 3,0 -3,-3 z"
         id="path4640"
         sodipodi:nodetypes="ccccccccccccccc" />
    </g>
    <g
       id="g4704"
       inkscape:export-filename="/home/tim/Desktop/node-camp/examples/conquest/web/imgs/blue-city.png"
       inkscape:export-xdpi="90"
       inkscape:export-ydpi="90">
      <path
         id="path4642"
         d="m 30,130 10,0 0,10 -10,0 0,-10 z"
         style="fill:#729fcf;stroke:none" />
      <path
         sodipodi:nodetypes="ccccccccccccccc"
         id="path4644"
         d="m 30,130 0,3 7,7 3,0 0,-3 -7,-7 -3,0 z m 7,0 3,3 0,-3 -3,0 z m -7,7 0,3 3,0 -3,-3 z"
         style="fill:#3465a4;fill-opacity:1;stroke:none" />
    </g>
    <g
       id="g4708"
       inkscape:export-filename="/home/tim/Desktop/node-camp/examples/conquest/web/imgs/purple.city.png"
       inkscape:export-xdpi="90"
       inkscape:export-ydpi="90">
      <path
         id="path4646"
         d="m 40,130 10,0 0,10 -10,0 0,-10 z"
         style="fill:#ad7fa8;stroke:none" />
      <path
         sodipodi:nodetypes="ccccccccccccccc"
         id="path4648"
         d="m 40,130 0,3 7,7 3,0 0,-3 -7,-7 -3,0 z m 7,0 3,3 0,-3 -3,0 z m -7,7 0,3 3,0 -3,-3 z"
         style="fill:#75507b;fill-opacity:1;stroke:none" />
    </g>
    <g
       id="g4712"
       inkscape:export-filename="/home/tim/Desktop/node-camp/examples/conquest/web/imgs/brown-city.png"
       inkscape:export-xdpi="90"
       inkscape:export-ydpi="90">
      <path
         id="path4650"
         d="m 50,130 10,0 0,10 -10,0 0,-10 z"
         style="fill:#e9b96e;stroke:none" />
      <path
         sodipodi:nodetypes="ccccccccccccccc"
         id="path4652"
         d="m 50,130 0,3 7,7 3,0 0,-3 -7,-7 -3,0 z m 7,0 3,3 0,-3 -3,0 z m -7,7 0,3 3,0 -3,-3 z"
         style="fill:#c17d11;fill-opacity:1;stroke:none" />
    </g>
    <g
       id="g4716"
       inkscape:export-filename="/home/tim/Desktop/node-camp/examples/conquest/web/imgs/red-city.png"
       inkscape:export-xdpi="90"
       inkscape:export-ydpi="90">
      <path
         style="fill:#ef2929;stroke:none"
         d="m 60,130 10,0 0,10 -10,0 0,-10 z"
         id="path4654" />
      <path
         style="fill:#cc0000;fill-opacity:1;stroke:none"
         d="m 60,130 0,3 7,7 3,0 0,-3 -7,-7 -3,0 z m 7,0 3,3 0,-3 -3,0 z m -7,7 0,3 3,0 -3,-3 z"
         id="path4656"
         sodipodi:nodetypes="ccccccccccccccc" />
    </g>
    <path
       style="fill:#8ae234;stroke:none"
       d="m 10,140 10,0 0,10 -10,0 0,-10 z"
       id="path4662" />
    <path
       style="fill:#fcaf3e;stroke:none"
       d="m 20,140 10,0 0,10 -10,0 0,-10 z"
       id="path4664" />
    <rect
       id="rect4666"
       y="140"
       x="20"
       height="10"
       width="10"
       style="fill:none;stroke:none" />
    <rect
       id="rect4668"
       y="140"
       x="20"
       height="10"
       width="10"
       style="fill:none;stroke:none" />
    <path
       id="path4670"
       d="m 30,140 10,0 0,10 -10,0 0,-10 z"
       style="fill:#729fcf;stroke:none" />
    <path
       id="path4672"
       d="m 40,140 10,0 0,10 -10,0 0,-10 z"
       style="fill:#ad7fa8;stroke:none" />
    <rect
       style="fill:none;stroke:none"
       width="10"
       height="10"
       x="40"
       y="140"
       id="rect4674" />
    <rect
       style="fill:none;stroke:none"
       width="10"
       height="10"
       x="40"
       y="140"
       id="rect4676" />
    <path
       style="fill:#e9b96e;stroke:none"
       d="m 50,140 10,0 0,10 -10,0 0,-10 z"
       id="path4678" />
    <path
       style="fill:#ef2929;stroke:none"
       d="m 60,140 10,0 0,10 -10,0 0,-10 z"
       id="path4680" />
    <rect
       id="rect4682"
       y="140"
       x="60"
       height="10"
       width="10"
       style="fill:none;stroke:none" />
    <rect
       id="rect4684"
       y="140"
       x="60"
       height="10"
       width="10"
       style="fill:none;stroke:none" />
    <path
       id="path4730"
       d="m -414.17678,-2.9393398 0,-1 1,-1 1,0 0,-4 -1,0 -1,-0.9999985 0,-0.9999997 -1,0 -1,-1 2,-2 0,-1 1,0 2,-2 4,0 1,1 0,1 1,0 1,1 0,2 -2,1.9999997 0,0.9999985 -2,0 0,4 1,0 1,1 0,1 -8,0 z"
       style="fill:#000000;fill-opacity:1;stroke:none" />
    <path
       sodipodi:nodetypes="cccccccccccccccc"
       id="path4734"
       d="m -396.93932,4.9393398 2,0 3,0 1,0 0,4 6,0 0,7.9999982 -4,0 0,-4 -2,0 0,4 -4,0 0,-7.9999982 -2,0 0.0392,-3.040699 -0.0392,-0.959301 z"
       style="fill:#000000;fill-opacity:1;stroke:none" />
    <path
       style="fill:#000000;fill-opacity:1;stroke:none"
       d="m -413.82322,16.883885 0,-1 1,-1 1,0 0,-4 -1,0 -1,-1.0000015 0,-1 -1,0 -1,-1 2,-2 0,-1 1,0 2,-2 4,0 1,1 0,1 1,0 1,1 0,2 -2,2 0,1.0000015 -2,0 0,4 1,0 1,1 0,1 -8,0 z"
       id="path4736" />
  </g>
  <g
     inkscape:label="Layer 1"
     inkscape:groupmode="layer"
     id="layer1"
     transform="translate(0,-972.36218)">
    <g
       id="g6224"
       transform="matrix(0.66666667,0,0,0.66666667,0,390.78739)">
      <rect
         y="992.36218"
         x="60"
         height="30"
         width="30"
         id="rect6212"
         style="fill:#d3d7cf;fill-opacity:0;stroke:none" />
      <path
         id="path3967"
         d="m 72,995.36216 0,3 6,0 0,-3 -6,0 z m 6,3 0,3.00004 -6,0 0,-3.00004 -6,0 0,9.00004 6,0 0,9 6,0 0,-9 6,0 0,-9.00004 -6,0 z"
         style="fill:#000000;fill-opacity:1;stroke:none" />
    </g>
    <path
       style="fill:#000000;fill-opacity:1;stroke:none"
       d="m 2.000008,1056.3622 0,12 15.999989,0 0,-12 -15.999989,0 z m 3.9999974,2 7.9999946,0 0,8 -7.9999946,0 0,-8 z"
       id="path3963" />
    <g
       id="g6232"
       transform="matrix(0.66666667,0,0,0.66666667,0,390.78739)">
      <rect
         style="fill:#d3d7cf;fill-opacity:0;stroke:none"
         id="rect6210"
         width="30"
         height="30"
         x="30"
         y="992.36218" />
      <path
         id="path3961"
         d="m 36.000008,998.36218 0,3.00002 5.999996,0 0,12 -5.999996,0 0,3 17.999988,0 0,-3 -5.999996,0 0,-12 5.999996,0 0,-3.00002 -17.999988,0 z"
         style="fill:#000000;fill-opacity:1;stroke:none" />
    </g>
    <g
       id="g6244"
       transform="matrix(0.66666667,0,0,0.66666667,0,390.78739)">
      <rect
         style="fill:#d3d7cf;fill-opacity:0;stroke:none"
         id="rect6214"
         width="30"
         height="30"
         x="90"
         y="992.36218" />
      <path
         id="path3959"
         d="m 93,998.36218 0,3.00002 6,0 0,-3.00002 -6,0 z m 17.99999,0 0,3.00002 5.99999,0 0,-3.00002 -5.99999,0 z M 99,1004.3622 l 0,6 11.99999,0 0,-6 -11.99999,0 z m -6,9 0,3 6,0 0,-3 -6,0 z m 17.99999,0 0,3 5.99999,0 0,-3 -5.99999,0 z"
         style="fill:#000000;fill-opacity:1;stroke:none" />
    </g>
    <g
       id="g6240"
       transform="translate(-540,-240)">
      <rect
         style="fill:#d3d7cf;fill-opacity:0;stroke:none"
         id="rect6222"
         width="30"
         height="30"
         x="0"
         y="1022.3622" />
      <path
         id="path3947"
         d="m 18,1028.3622 -6.01875,0.094 0.01875,2.9063 6,0 0,-3 z m -6,3 -6,0 0,15 6,0 0,-3 6,0 0,-3 6,0 0,-3 -6,0 0,-3 -6,0 0,-3 z m 0,15 0,3 6,0 0,-3 -6,0 z"
         style="fill:#000000;fill-opacity:1;stroke:none" />
    </g>
    <g
       id="g6228"
       transform="matrix(0.66666667,0,0,0.66666667,0,390.78739)">
      <rect
         y="1022.3622"
         x="30"
         height="30"
         width="30"
         id="rect6220"
         style="fill:#d3d7cf;fill-opacity:0;stroke:none" />
      <path
         id="path3941"
         d="m 36,1028.3622 0,6 6,0 0,-6 -6,0 z m 12,3 0,6 6,0 0,-6 -6,0 z m -6,9 0,6 6,0 0,-6 -6,0 z"
         style="fill:#000000;fill-opacity:1;stroke:none" />
    </g>
    <g
       id="g6252"
       transform="matrix(0.66666667,0,0,0.66666667,0,390.78739)">
      <rect
         style="fill:#d3d7cf;fill-opacity:0;stroke:none"
         id="rect6218"
         width="30"
         height="30"
         x="60"
         y="1022.3622" />
      <path
         id="path3939"
         d="m 63,1028.3622 0,6 6,0 0,12 6,0 0,-6 6,0 0,6 6,0 0,-12 -12,0 0,-6 -12,0 z"
         style="fill:#000000;fill-opacity:1;stroke:none" />
    </g>
    <g
       id="g6248"
       transform="matrix(0.66666667,0,0,0.66666667,0,390.78739)">
      <rect
         y="1022.3622"
         x="90"
         height="30"
         width="30"
         id="rect6216"
         style="fill:#d3d7cf;fill-opacity:0;stroke:none" />
      <path
         id="path3935"
         d="m 96,1034.3622 0,12 6,0 0,-12 -6,0 z m 12,0 0,12 6,0 0,-12 -6,0 z"
         style="fill:#000000;fill-opacity:1;stroke:none" />
    </g>
    <g
       transform="matrix(0.66666667,0,0,0.66666667,0,390.78739)"
       id="g6256">
      <rect
         y="1022.3622"
         x="0"
         height="30"
         width="30"
         id="rect6258"
         style="fill:#d3d7cf;fill-opacity:0;stroke:none" />
      <path
         style="fill:#000000;fill-opacity:1;stroke:none"
         d="m 18,1028.3622 -6.01875,0.094 0.01875,2.9063 6,0 0,-3 z m -6,3 -6,0 0,15 6,0 0,-3 6,0 0,-3 6,0 0,-3 -6,0 0,-3 -6,0 0,-3 z m 0,15 0,3 6,0 0,-3 -6,0 z"
         id="path6260" />
    </g>
    <g
       id="g6262"
       transform="translate(-600,-210)">
      <rect
         style="fill:#d3d7cf;fill-opacity:0;stroke:none"
         id="rect6264"
         width="30"
         height="30"
         x="90"
         y="1022.3622" />
      <path
         style="fill:#000000;fill-opacity:1;stroke:none"
         d="m 96,1034.3622 0,12 6,0 0,-12 -6,0 z m 12,0 0,12 6,0 0,-12 -6,0 z"
         id="path6266" />
    </g>
    <g
       id="g6268"
       transform="translate(-510,-210)">
      <rect
         y="1022.3622"
         x="60"
         height="30"
         width="30"
         id="rect6270"
         style="fill:#d3d7cf;fill-opacity:0;stroke:none" />
      <path
         style="fill:#000000;fill-opacity:1;stroke:none"
         d="m 63,1028.3622 0,6 6,0 0,12 6,0 0,-6 6,0 0,6 6,0 0,-12 -12,0 0,-6 -12,0 z"
         id="path6272" />
    </g>
    <g
       id="g6288"
       transform="translate(-570,-89.99998)">
      <rect
         style="fill:#d3d7cf;fill-opacity:0;stroke:none"
         id="rect6290"
         width="30"
         height="30"
         x="60"
         y="992.36218" />
      <path
         style="fill:#000000;fill-opacity:1;stroke:none"
         d="m 72,995.36216 0,3 6,0 0,-3 -6,0 z m 6,3 0,3.00004 -6,0 0,-3.00004 -6,0 0,9.00004 6,0 0,9 6,0 0,-9 6,0 0,-9.00004 -6,0 z"
         id="path6292" />
    </g>
    <g
       transform="translate(-570,-60)"
       id="g6294">
      <rect
         style="fill:#d3d7cf;fill-opacity:0;stroke:none"
         id="rect6296"
         width="30"
         height="30"
         x="60"
         y="1022.3622" />
      <path
         id="path6298"
         d="m 63,1028.3622 0,6 6,0 0,12 6,0 0,-6 6,0 0,6 6,0 0,-12 -12,0 0,-6 -12,0 z"
         style="fill:#000000;fill-opacity:1;stroke:none" />
    </g>
    <g
       id="g6325"
       transform="matrix(0.66666667,0,0,0.66666667,0,250.78739)">
      <path
         transform="translate(0,992.36218)"
         sodipodi:nodetypes="cccccccccc"
         id="path6314"
         d="m 21,75 0,-6 -6,0 0,9 -6,0 0,3 -6,0 0,3 24,0 0,-9"
         style="fill:#edd400;stroke:none" />
      <rect
         style="fill:#d3d7cf;fill-opacity:0;stroke:none"
         id="rect6318"
         width="30"
         height="30"
         x="0"
         y="1052.3622" />
    </g>
    <g
       id="g6329"
       transform="matrix(0.66666667,0,0,0.66666667,20,250.78739)">
      <path
         style="fill:#73d216;stroke:none"
         d="m 21,75 0,-6 -6,0 0,9 -6,0 0,3 -6,0 0,3 24,0 0,-9"
         id="path6331"
         sodipodi:nodetypes="cccccccccc"
         transform="translate(0,992.36218)" />
      <rect
         y="1052.3622"
         x="0"
         height="30"
         width="30"
         id="rect6333"
         style="fill:#d3d7cf;fill-opacity:0;stroke:none" />
    </g>
    <g
       transform="matrix(0.66666667,0,0,0.66666667,40,250.78739)"
       id="g6335">
      <path
         transform="translate(0,992.36218)"
         sodipodi:nodetypes="cccccccccc"
         id="path6337"
         d="m 21,75 0,-6 -6,0 0,9 -6,0 0,3 -6,0 0,3 24,0 0,-9"
         style="fill:#f57900;stroke:none" />
      <rect
         style="fill:#d3d7cf;fill-opacity:0;stroke:none"
         id="rect6339"
         width="30"
         height="30"
         x="0"
         y="1052.3622" />
    </g>
    <g
       id="g6341"
       transform="matrix(0.66666667,0,0,0.66666667,60,250.78739)">
      <path
         style="fill:#3465a4;stroke:none"
         d="m 21,75 0,-6 -6,0 0,9 -6,0 0,3 -6,0 0,3 24,0 0,-9"
         id="path6343"
         sodipodi:nodetypes="cccccccccc"
         transform="translate(0,992.36218)" />
      <rect
         y="1052.3622"
         x="0"
         height="30"
         width="30"
         id="rect6345"
         style="fill:#d3d7cf;fill-opacity:0;stroke:none" />
    </g>
    <g
       transform="matrix(0.66666667,0,0,0.66666667,20,230.78739)"
       id="g6347">
      <path
         transform="translate(0,992.36218)"
         sodipodi:nodetypes="cccccccccc"
         id="path6349"
         d="m 21,75 0,-6 -6,0 0,9 -6,0 0,3 -6,0 0,3 24,0 0,-9"
         style="fill:#75507b;stroke:none" />
      <rect
         style="fill:#d3d7cf;fill-opacity:0;stroke:none"
         id="rect6351"
         width="30"
         height="30"
         x="0"
         y="1052.3622" />
    </g>
    <g
       id="g6353"
       transform="matrix(0.66666667,0,0,0.66666667,40,230.78739)">
      <path
         style="fill:#c17d11;stroke:none"
         d="m 21,75 0,-6 -6,0 0,9 -6,0 0,3 -6,0 0,3 24,0 0,-9"
         id="path6355"
         sodipodi:nodetypes="cccccccccc"
         transform="translate(0,992.36218)" />
      <rect
         y="1052.3622"
         x="0"
         height="30"
         width="30"
         id="rect6357"
         style="fill:#d3d7cf;fill-opacity:0;stroke:none" />
    </g>
    <g
       transform="matrix(0.66666667,0,0,0.66666667,60,230.78739)"
       id="g6359"
       style="fill:#cc0000">
      <path
         transform="translate(0,992.36218)"
         sodipodi:nodetypes="cccccccccc"
         id="path6361"
         d="m 21,75 0,-6 -6,0 0,9 -6,0 0,3 -6,0 0,3 24,0 0,-9"
         style="fill:#cc0000;stroke:none" />
      <rect
         style="fill:#cc0000;fill-opacity:0;stroke:none"
         id="rect6363"
         width="30"
         height="30"
         x="0"
         y="1052.3622" />
    </g>
    <g
       transform="translate(-510,-300)"
       id="g6365">
      <path
         transform="translate(0,992.36218)"
         sodipodi:nodetypes="cccccccccc"
         id="path6367"
         d="m 21,75 0,-6 -6,0 0,9 -6,0 0,3 -6,0 0,3 24,0 0,-9"
         style="fill:#cc0000;stroke:none" />
      <rect
         style="fill:#d3d7cf;fill-opacity:0;stroke:none"
         id="rect6369"
         width="30"
         height="30"
         x="0"
         y="1052.3622" />
    </g>
  </g>
</svg>
